<?xml version="1.0" encoding="UTF-8"?>
<svg id="Layer_2" data-name="Layer 2" xmlns="http://www.w3.org/2000/svg" viewBox="0 0 135.65 125.98">
  <defs>
    <style>
      .cls-1 {
        fill: #fff;
      }

      .cls-2 {
        fill: #624cf5;
      }
    </style>
  </defs>
  <g id="Layer_1-2" data-name="Layer 1">
    <g>
      <path class="cls-2" d="M135.65,6.24V119.74c-1.72,4.54-4.92,6.25-9.84,6.23-38.98-.14-77.96-.08-116.94-.09-5.97,0-8.87-2.9-8.87-8.88C0,81.03,0,45.05,0,9.07,0,3.02,2.96,.09,9.07,.09,47.88,.08,86.7,.13,125.51,0c4.95-.02,8.35,1.58,10.14,6.24ZM60.26,55.83c-10.72-5.63-25.88-2.04-33.91,7.78-8.96,10.96-8.97,26.2-.01,36.97,8.42,10.12,23.3,13.61,33.94,7.85-6.97-7.3-10.65-15.97-10.72-26.06-.08-10.2,3.62-18.97,10.71-26.54Zm14.97,14.3c10.9,5.74,25.68,2.23,33.99-7.88,8.86-10.76,8.84-25.73-.03-36.76-8.04-10-23.02-13.56-33.97-7.94,6.99,7.3,10.66,16.04,10.75,26.08,.09,10.18-3.59,18.98-10.74,26.5Zm-14.75,.56c-5.84,10.9-1.94,26.06,8.9,34.52,10.84,8.47,26.63,7.75,36.92-1.65,11.34-10.36,11.23-25.48,6.86-32.84-13.94,13.27-36.9,14.68-52.68-.04Zm-38.29-15.49c17.75-14.08,35.31-14.08,52.88,.02,5.49-10.73,1.87-25.75-8.12-33.79-10.92-8.78-26.12-8.71-36.84,.16-9.99,8.28-13.49,23.14-7.92,33.6Z"/>
      <path class="cls-1" d="M60.26,55.83c-7.09,7.57-10.78,16.33-10.71,26.54,.08,10.08,3.76,18.76,10.72,26.06-10.65,5.77-25.53,2.27-33.94-7.85-8.96-10.77-8.95-26,.01-36.97,8.03-9.82,23.2-13.41,33.91-7.78Z"/>
      <path class="cls-1" d="M75.23,70.14c7.15-7.52,10.83-16.33,10.74-26.5-.09-10.04-3.75-18.78-10.75-26.08,10.95-5.62,25.93-2.06,33.97,7.94,8.87,11.03,8.89,26,.03,36.76-8.32,10.11-23.1,13.62-33.99,7.88Z"/>
      <path class="cls-1" d="M60.48,70.69c15.77,14.72,38.74,13.31,52.68,.04,4.37,7.36,4.48,22.48-6.86,32.84-10.29,9.4-26.08,10.11-36.92,1.65-10.84-8.46-14.74-23.62-8.9-34.52Z"/>
      <path class="cls-1" d="M22.19,55.2c-5.58-10.46-2.08-25.33,7.92-33.6,10.71-8.88,25.91-8.94,36.84-.16,9.99,8.03,13.61,23.06,8.12,33.79-17.57-14.1-35.13-14.1-52.88-.02Z"/>
    </g>
  </g>
</svg>